<svg width="29" height="29" viewBox="0 0 29 29" fill="none" xmlns="http://www.w3.org/2000/svg">
<path d="M0.666656 28.3333C0.666656 25.5043 1.79046 22.7912 3.79085 20.7908C5.79124 18.7904 8.50435 17.6666 11.3333 17.6666C14.1623 17.6666 16.8754 18.7904 18.8758 20.7908C20.8762 22.7912 22 25.5043 22 28.3333H19.3333C19.3333 26.2115 18.4905 24.1767 16.9902 22.6764C15.4899 21.1761 13.4551 20.3333 11.3333 20.3333C9.21159 20.3333 7.17676 21.1761 5.67647 22.6764C4.17618 24.1767 3.33332 26.2115 3.33332 28.3333H0.666656ZM11.3333 16.3333C6.91332 16.3333 3.33332 12.7533 3.33332 8.33325C3.33332 3.91325 6.91332 0.333252 11.3333 0.333252C15.7533 0.333252 19.3333 3.91325 19.3333 8.33325C19.3333 12.7533 15.7533 16.3333 11.3333 16.3333ZM11.3333 13.6666C14.28 13.6666 16.6667 11.2799 16.6667 8.33325C16.6667 5.38659 14.28 2.99992 11.3333 2.99992C8.38666 2.99992 5.99999 5.38659 5.99999 8.33325C5.99999 11.2799 8.38666 13.6666 11.3333 13.6666ZM22.3787 18.6039C24.2524 19.4478 25.8426 20.8149 26.9581 22.5409C28.0736 24.2668 28.6669 26.2782 28.6667 28.3333H26C26.0003 26.7919 25.5554 25.2832 24.7188 23.9887C23.8822 22.6941 22.6894 21.6688 21.284 21.0359L22.3773 18.6039H22.3787ZM21.4613 3.55059C22.8047 4.10432 23.9533 5.04464 24.7613 6.25223C25.5694 7.45982 26.0005 8.88024 26 10.3333C26.0006 12.163 25.3169 13.9269 24.0834 15.2784C22.8498 16.6298 21.1556 17.4712 19.3333 17.6373V14.9533C20.3212 14.8118 21.2378 14.3573 21.9484 13.6565C22.659 12.9558 23.1262 12.0457 23.2815 11.0598C23.4368 10.074 23.272 9.06432 22.8112 8.17906C22.3504 7.2938 21.6179 6.57958 20.7213 6.14125L21.4613 3.55059V3.55059Z" fill="white"/>
</svg>
