<svg width="20" height="29" viewBox="0 0 20 29" fill="none" xmlns="http://www.w3.org/2000/svg">
<path d="M10 28.6667C12.6522 28.6667 15.1957 27.6131 17.0711 25.7377C18.9464 23.8624 20 21.3188 20 18.6667C20 17.512 19.6933 16.404 19.3333 15.3733C17.1107 17.5693 15.4227 18.6667 14.2667 18.6667C19.5933 9.33333 16.6667 5.33333 8.66667 0C9.33334 6.66667 4.93867 9.69867 3.14934 11.3827C1.68977 12.7556 0.676319 14.5353 0.24038 16.4911C-0.195559 18.4469 -0.0338758 20.4886 0.704465 22.3514C1.44281 24.2142 2.72375 25.8122 4.38121 26.9383C6.03867 28.0643 7.99621 28.6665 10 28.6667V28.6667ZM10.9467 4.98C15.268 8.64667 15.2893 11.496 11.9507 17.3453C10.936 19.1227 12.22 21.3333 14.2667 21.3333C15.184 21.3333 16.112 21.0667 17.092 20.54C16.8015 21.6373 16.2603 22.6522 15.5109 23.5048C14.7615 24.3573 13.8244 25.0243 12.7734 25.4532C11.7225 25.882 10.5863 26.061 9.45434 25.9761C8.32242 25.8912 7.22565 25.5447 6.25041 24.9639C5.27517 24.383 4.44807 23.5837 3.83425 22.6289C3.22043 21.6741 2.83663 20.5898 2.71309 19.4615C2.58955 18.3331 2.72964 17.1915 3.12232 16.1264C3.51499 15.0614 4.14954 14.1021 4.976 13.324C5.144 13.1667 5.996 12.4107 6.03334 12.3773C6.59867 11.8707 7.064 11.4213 7.524 10.9293C9.164 9.172 10.3427 7.22267 10.9453 4.98H10.9467Z" fill="white"/>
</svg>
