<svg width="29" height="25" viewBox="0 0 29 25" fill="none" xmlns="http://www.w3.org/2000/svg">
<path d="M21 0C25.0507 0 28.3333 3.33333 28.3333 8C28.3333 17.3333 18.3333 22.6667 15 24.6667C12.364 23.0853 5.556 19.4173 2.82533 13.3347L0.333328 13.3333V10.6667H1.94666C1.76533 9.81867 1.66666 8.93067 1.66666 8C1.66666 3.33333 5 0 9 0C11.48 0 13.6667 1.33333 15 2.66667C16.3333 1.33333 18.52 0 21 0ZM21 2.66667C19.5653 2.66667 18.0133 3.42667 16.8853 4.552L15 6.43733L13.1147 4.552C11.9867 3.42667 10.4347 2.66667 9 2.66667C6.41333 2.66667 4.33333 4.87467 4.33333 8C4.33333 8.91333 4.45333 9.80267 4.68933 10.6667H7.57866L10.3333 6.07467L14.3333 12.7413L15.5787 10.6667H21.6667V13.3333H17.088L14.3333 17.9253L10.3333 11.2587L9.088 13.3333H5.81066C6.86399 15.1653 8.45733 16.8907 10.5267 18.5373C11.52 19.3267 12.58 20.064 13.7547 20.804C14.1533 21.056 14.548 21.2973 15 21.5667C15.452 21.2973 15.8467 21.056 16.2453 20.8053C17.42 20.064 18.48 19.3267 19.472 18.5373C23.4467 15.3773 25.6667 11.924 25.6667 8C25.6667 4.85333 23.6173 2.66667 21 2.66667Z" fill="white"/>
</svg>
