<svg width="26" height="30" viewBox="0 0 26 30" fill="none" xmlns="http://www.w3.org/2000/svg">
<path d="M11 17.6666V20.3333C8.87826 20.3333 6.84343 21.1761 5.34314 22.6764C3.84285 24.1767 2.99999 26.2115 2.99999 28.3333H0.333328C0.333328 25.5043 1.45713 22.7912 3.45752 20.7908C5.45791 18.7904 8.17102 17.6666 11 17.6666V17.6666ZM11 16.3333C6.57999 16.3333 2.99999 12.7533 2.99999 8.33325C2.99999 3.91325 6.57999 0.333252 11 0.333252C15.42 0.333252 19 3.91325 19 8.33325C19 12.7533 15.42 16.3333 11 16.3333ZM11 13.6666C13.9467 13.6666 16.3333 11.2799 16.3333 8.33325C16.3333 5.38659 13.9467 2.99992 11 2.99992C8.05333 2.99992 5.66666 5.38659 5.66666 8.33325C5.66666 11.2799 8.05333 13.6666 11 13.6666ZM19 27.6666L15.0813 29.7266L15.8293 25.3639L12.66 22.2733L17.0413 21.6359L19 17.6666L20.96 21.6359L25.34 22.2733L22.1707 25.3639L22.9173 29.7266L19 27.6666Z" fill="white"/>
</svg>
